<?xml version="1.0" encoding="UTF-8" standalone="no"?>
<!DOCTYPE svg PUBLIC "-//W3C//DTD SVG 1.1//EN"
 "http://www.w3.org/Graphics/SVG/1.1/DTD/svg11.dtd">
<!-- Generated by graphviz version 2.48.0 (20210717.1556)
 -->
<!-- Title: G Pages: 1 -->
<svg width="1492pt" height="415pt"
 viewBox="0.00 0.00 1492.20 415.06" xmlns="http://www.w3.org/2000/svg" xmlns:xlink="http://www.w3.org/1999/xlink">
<g id="graph0" class="graph" transform="scale(1 1) rotate(0) translate(21.6 393.46)">
<title>G</title>
<polygon fill="#111111" stroke="transparent" points="-21.6,21.6 -21.6,-393.46 1470.6,-393.46 1470.6,21.6 -21.6,21.6"/>
<!-- osc/socket&#45;to&#45;udp.js -->
<g id="node1" class="node">
<title>osc/socket&#45;to&#45;udp.js</title>
<path fill="none" stroke="#cfffac" d="M179.83,-84C179.83,-84 50.17,-84 50.17,-84 46.33,-84 42.5,-80.17 42.5,-76.33 42.5,-76.33 42.5,-68.67 42.5,-68.67 42.5,-64.83 46.33,-61 50.17,-61 50.17,-61 179.83,-61 179.83,-61 183.67,-61 187.5,-64.83 187.5,-68.67 187.5,-68.67 187.5,-76.33 187.5,-76.33 187.5,-80.17 183.67,-84 179.83,-84"/>
<text text-anchor="middle" x="115" y="-68.8" font-family="Arial" font-size="14.00" fill="#cfffac">osc/socket&#45;to&#45;udp.js</text>
</g>
<!-- synthesis/ct&#45;synths/BaseSynth.js -->
<g id="node2" class="node">
<title>synthesis/ct&#45;synths/BaseSynth.js</title>
<path fill="none" stroke="#c6c5fe" d="M1194.33,-208C1194.33,-208 987.67,-208 987.67,-208 983.83,-208 980,-204.17 980,-200.33 980,-200.33 980,-192.67 980,-192.67 980,-188.83 983.83,-185 987.67,-185 987.67,-185 1194.33,-185 1194.33,-185 1198.17,-185 1202,-188.83 1202,-192.67 1202,-192.67 1202,-200.33 1202,-200.33 1202,-204.17 1198.17,-208 1194.33,-208"/>
<text text-anchor="middle" x="1091" y="-192.8" font-family="Arial" font-size="14.00" fill="#c6c5fe">synthesis/ct&#45;synths/BaseSynth.js</text>
</g>
<!-- synthesis/ct&#45;synths/utils/core.js -->
<g id="node3" class="node">
<title>synthesis/ct&#45;synths/utils/core.js</title>
<path fill="none" stroke="#cfffac" d="M1441.33,-247C1441.33,-247 1245.67,-247 1245.67,-247 1241.83,-247 1238,-243.17 1238,-239.33 1238,-239.33 1238,-231.67 1238,-231.67 1238,-227.83 1241.83,-224 1245.67,-224 1245.67,-224 1441.33,-224 1441.33,-224 1445.17,-224 1449,-227.83 1449,-231.67 1449,-231.67 1449,-239.33 1449,-239.33 1449,-243.17 1445.17,-247 1441.33,-247"/>
<text text-anchor="middle" x="1343.5" y="-231.8" font-family="Arial" font-size="14.00" fill="#cfffac">synthesis/ct&#45;synths/utils/core.js</text>
</g>
<!-- synthesis/ct&#45;synths/BaseSynth.js&#45;&gt;synthesis/ct&#45;synths/utils/core.js -->
<g id="edge1" class="edge">
<title>synthesis/ct&#45;synths/BaseSynth.js&#45;&gt;synthesis/ct&#45;synths/utils/core.js</title>
<path fill="none" stroke="#757575" d="M1166.14,-208.04C1195.18,-212.56 1228.63,-217.77 1258.55,-222.43"/>
<polygon fill="#757575" stroke="#757575" points="1258.13,-225.91 1268.55,-223.99 1259.21,-218.99 1258.13,-225.91"/>
</g>
<!-- synthesis/ct&#45;synths/utils/tone.js -->
<g id="node4" class="node">
<title>synthesis/ct&#45;synths/utils/tone.js</title>
<path fill="none" stroke="#cfffac" d="M1440.83,-130C1440.83,-130 1246.17,-130 1246.17,-130 1242.33,-130 1238.5,-126.17 1238.5,-122.33 1238.5,-122.33 1238.5,-114.67 1238.5,-114.67 1238.5,-110.83 1242.33,-107 1246.17,-107 1246.17,-107 1440.83,-107 1440.83,-107 1444.67,-107 1448.5,-110.83 1448.5,-114.67 1448.5,-114.67 1448.5,-122.33 1448.5,-122.33 1448.5,-126.17 1444.67,-130 1440.83,-130"/>
<text text-anchor="middle" x="1343.5" y="-114.8" font-family="Arial" font-size="14.00" fill="#cfffac">synthesis/ct&#45;synths/utils/tone.js</text>
</g>
<!-- synthesis/ct&#45;synths/BaseSynth.js&#45;&gt;synthesis/ct&#45;synths/utils/tone.js -->
<g id="edge2" class="edge">
<title>synthesis/ct&#45;synths/BaseSynth.js&#45;&gt;synthesis/ct&#45;synths/utils/tone.js</title>
<path fill="none" stroke="#757575" d="M1128.96,-184.99C1173.27,-171.19 1247.57,-148.06 1295.81,-133.04"/>
<polygon fill="#757575" stroke="#757575" points="1296.88,-136.37 1305.39,-130.06 1294.8,-129.69 1296.88,-136.37"/>
</g>
<!-- synthesis/ct&#45;synths/DrumSynth.js -->
<g id="node5" class="node">
<title>synthesis/ct&#45;synths/DrumSynth.js</title>
<path fill="none" stroke="#c6c5fe" d="M905.33,-351C905.33,-351 696.67,-351 696.67,-351 692.83,-351 689,-347.17 689,-343.33 689,-343.33 689,-335.67 689,-335.67 689,-331.83 692.83,-328 696.67,-328 696.67,-328 905.33,-328 905.33,-328 909.17,-328 913,-331.83 913,-335.67 913,-335.67 913,-343.33 913,-343.33 913,-347.17 909.17,-351 905.33,-351"/>
<text text-anchor="middle" x="801" y="-335.8" font-family="Arial" font-size="14.00" fill="#c6c5fe">synthesis/ct&#45;synths/DrumSynth.js</text>
</g>
<!-- synthesis/ct&#45;synths/DrumSynth.js&#45;&gt;synthesis/ct&#45;synths/BaseSynth.js -->
<g id="edge3" class="edge">
<title>synthesis/ct&#45;synths/DrumSynth.js&#45;&gt;synthesis/ct&#45;synths/BaseSynth.js</title>
<path fill="none" stroke="#757575" d="M913.03,-330.07C923.73,-327.33 934.23,-323.87 944,-319.5 998.81,-295.02 1049.15,-243.61 1073.9,-215.63"/>
<polygon fill="#757575" stroke="#757575" points="1076.55,-217.92 1080.47,-208.08 1071.26,-213.33 1076.55,-217.92"/>
</g>
<!-- synthesis/ct&#45;synths/DrumSynth.js&#45;&gt;synthesis/ct&#45;synths/utils/core.js -->
<g id="edge4" class="edge">
<title>synthesis/ct&#45;synths/DrumSynth.js&#45;&gt;synthesis/ct&#45;synths/utils/core.js</title>
<path fill="none" stroke="#757575" d="M850.5,-351.06C927.5,-367.1 1081.36,-389.7 1202,-347.5 1254.83,-329.02 1302.63,-281.42 1326.49,-254.6"/>
<polygon fill="#757575" stroke="#757575" points="1329.18,-256.84 1333.11,-247 1323.9,-252.25 1329.18,-256.84"/>
</g>
<!-- synthesis/ct&#45;synths/DuoSynth.js -->
<g id="node6" class="node">
<title>synthesis/ct&#45;synths/DuoSynth.js</title>
<path fill="none" stroke="#c6c5fe" d="M900.83,-105C900.83,-105 701.17,-105 701.17,-105 697.33,-105 693.5,-101.17 693.5,-97.33 693.5,-97.33 693.5,-89.67 693.5,-89.67 693.5,-85.83 697.33,-82 701.17,-82 701.17,-82 900.83,-82 900.83,-82 904.67,-82 908.5,-85.83 908.5,-89.67 908.5,-89.67 908.5,-97.33 908.5,-97.33 908.5,-101.17 904.67,-105 900.83,-105"/>
<text text-anchor="middle" x="801" y="-89.8" font-family="Arial" font-size="14.00" fill="#c6c5fe">synthesis/ct&#45;synths/DuoSynth.js</text>
</g>
<!-- synthesis/ct&#45;synths/DuoSynth.js&#45;&gt;synthesis/ct&#45;synths/BaseSynth.js -->
<g id="edge5" class="edge">
<title>synthesis/ct&#45;synths/DuoSynth.js&#45;&gt;synthesis/ct&#45;synths/BaseSynth.js</title>
<path fill="none" stroke="#757575" d="M908.87,-104.1C920.88,-106.6 932.81,-109.69 944,-113.5 990.07,-129.2 1038.14,-159.72 1066.01,-179.05"/>
<polygon fill="#757575" stroke="#757575" points="1064.13,-182.01 1074.32,-184.9 1068.16,-176.28 1064.13,-182.01"/>
</g>
<!-- synthesis/ct&#45;synths/DuoSynth.js&#45;&gt;synthesis/ct&#45;synths/utils/core.js -->
<g id="edge6" class="edge">
<title>synthesis/ct&#45;synths/DuoSynth.js&#45;&gt;synthesis/ct&#45;synths/utils/core.js</title>
<path fill="none" stroke="#757575" d="M908.87,-91.51C991.38,-93.26 1107.1,-102.98 1202,-138.5 1249.84,-156.41 1296.95,-194.17 1322.62,-216.93"/>
<polygon fill="#757575" stroke="#757575" points="1320.41,-219.65 1330.18,-223.75 1325.1,-214.46 1320.41,-219.65"/>
</g>
<!-- synthesis/ct&#45;synths/DuoSynth.js&#45;&gt;synthesis/ct&#45;synths/utils/tone.js -->
<g id="edge7" class="edge">
<title>synthesis/ct&#45;synths/DuoSynth.js&#45;&gt;synthesis/ct&#45;synths/utils/tone.js</title>
<path fill="none" stroke="#757575" d="M881.65,-81.98C901.99,-78.97 923.81,-75.67 944,-72.5 960.02,-69.98 963.83,-67.84 980,-66.5 1078.33,-58.36 1104.88,-49.1 1202,-66.5 1240.25,-73.35 1281.7,-89.91 1309.59,-102.52"/>
<polygon fill="#757575" stroke="#757575" points="1308.32,-105.79 1318.87,-106.79 1311.25,-99.43 1308.32,-105.79"/>
</g>
<!-- synthesis/ct&#45;synths/FMSynth.js -->
<g id="node7" class="node">
<title>synthesis/ct&#45;synths/FMSynth.js</title>
<path fill="none" stroke="#c6c5fe" d="M897.83,-310C897.83,-310 704.17,-310 704.17,-310 700.33,-310 696.5,-306.17 696.5,-302.33 696.5,-302.33 696.5,-294.67 696.5,-294.67 696.5,-290.83 700.33,-287 704.17,-287 704.17,-287 897.83,-287 897.83,-287 901.67,-287 905.5,-290.83 905.5,-294.67 905.5,-294.67 905.5,-302.33 905.5,-302.33 905.5,-306.17 901.67,-310 897.83,-310"/>
<text text-anchor="middle" x="801" y="-294.8" font-family="Arial" font-size="14.00" fill="#c6c5fe">synthesis/ct&#45;synths/FMSynth.js</text>
</g>
<!-- synthesis/ct&#45;synths/FMSynth.js&#45;&gt;synthesis/ct&#45;synths/BaseSynth.js -->
<g id="edge8" class="edge">
<title>synthesis/ct&#45;synths/FMSynth.js&#45;&gt;synthesis/ct&#45;synths/BaseSynth.js</title>
<path fill="none" stroke="#757575" d="M905.82,-288.46C918.85,-285.87 931.85,-282.6 944,-278.5 989.73,-263.05 1037.55,-233.15 1065.52,-214.04"/>
<polygon fill="#757575" stroke="#757575" points="1067.65,-216.82 1073.88,-208.25 1063.66,-211.07 1067.65,-216.82"/>
</g>
<!-- synthesis/ct&#45;synths/FMSynth.js&#45;&gt;synthesis/ct&#45;synths/utils/core.js -->
<g id="edge9" class="edge">
<title>synthesis/ct&#45;synths/FMSynth.js&#45;&gt;synthesis/ct&#45;synths/utils/core.js</title>
<path fill="none" stroke="#757575" d="M884.32,-310.03C903.91,-312.95 924.72,-316.2 944,-319.5 960.07,-322.25 963.78,-324.94 980,-326.5 1078.21,-335.96 1107.38,-354.47 1202,-326.5 1250.03,-312.3 1297.07,-275.98 1322.68,-253.75"/>
<polygon fill="#757575" stroke="#757575" points="1325.06,-256.33 1330.22,-247.08 1320.41,-251.09 1325.06,-256.33"/>
</g>
<!-- synthesis/ct&#45;synths/FMSynth.js&#45;&gt;synthesis/ct&#45;synths/utils/tone.js -->
<g id="edge10" class="edge">
<title>synthesis/ct&#45;synths/FMSynth.js&#45;&gt;synthesis/ct&#45;synths/utils/tone.js</title>
<path fill="none" stroke="#757575" d="M905.72,-301.81C989.37,-300.62 1108.13,-290.02 1202,-246.5 1203.82,-245.66 1283.72,-172.44 1322.2,-137.14"/>
<polygon fill="#757575" stroke="#757575" points="1324.74,-139.56 1329.74,-130.22 1320,-134.4 1324.74,-139.56"/>
</g>
<!-- synthesis/ct&#45;synths/Granular.js -->
<g id="node8" class="node">
<title>synthesis/ct&#45;synths/Granular.js</title>
<path fill="none" stroke="#c6c5fe" d="M896.83,-23C896.83,-23 705.17,-23 705.17,-23 701.33,-23 697.5,-19.17 697.5,-15.33 697.5,-15.33 697.5,-7.67 697.5,-7.67 697.5,-3.83 701.33,0 705.17,0 705.17,0 896.83,0 896.83,0 900.67,0 904.5,-3.83 904.5,-7.67 904.5,-7.67 904.5,-15.33 904.5,-15.33 904.5,-19.17 900.67,-23 896.83,-23"/>
<text text-anchor="middle" x="801" y="-7.8" font-family="Arial" font-size="14.00" fill="#c6c5fe">synthesis/ct&#45;synths/Granular.js</text>
</g>
<!-- synthesis/ct&#45;synths/Granular.js&#45;&gt;synthesis/ct&#45;synths/BaseSynth.js -->
<g id="edge11" class="edge">
<title>synthesis/ct&#45;synths/Granular.js&#45;&gt;synthesis/ct&#45;synths/BaseSynth.js</title>
<path fill="none" stroke="#757575" d="M904.85,-17.14C918.51,-20.4 931.94,-25.02 944,-31.5 1008.02,-65.91 1057.44,-140.14 1078.66,-176.13"/>
<polygon fill="#757575" stroke="#757575" points="1075.64,-177.89 1083.67,-184.8 1081.7,-174.39 1075.64,-177.89"/>
</g>
<!-- synthesis/ct&#45;synths/Granular.js&#45;&gt;synthesis/ct&#45;synths/utils/tone.js -->
<g id="edge12" class="edge">
<title>synthesis/ct&#45;synths/Granular.js&#45;&gt;synthesis/ct&#45;synths/utils/tone.js</title>
<path fill="none" stroke="#757575" d="M904.7,-3.2C986.97,0.22 1104.37,-2.21 1202,-32.5 1248.14,-46.82 1294.55,-79.68 1320.8,-100.38"/>
<polygon fill="#757575" stroke="#757575" points="1318.91,-103.35 1328.9,-106.89 1323.3,-97.9 1318.91,-103.35"/>
</g>
<!-- synthesis/ct&#45;synths/KarplusSynth.js -->
<g id="node9" class="node">
<title>synthesis/ct&#45;synths/KarplusSynth.js</title>
<path fill="none" stroke="#c6c5fe" d="M911.83,-228C911.83,-228 690.17,-228 690.17,-228 686.33,-228 682.5,-224.17 682.5,-220.33 682.5,-220.33 682.5,-212.67 682.5,-212.67 682.5,-208.83 686.33,-205 690.17,-205 690.17,-205 911.83,-205 911.83,-205 915.67,-205 919.5,-208.83 919.5,-212.67 919.5,-212.67 919.5,-220.33 919.5,-220.33 919.5,-224.17 915.67,-228 911.83,-228"/>
<text text-anchor="middle" x="801" y="-212.8" font-family="Arial" font-size="14.00" fill="#c6c5fe">synthesis/ct&#45;synths/KarplusSynth.js</text>
</g>
<!-- synthesis/ct&#45;synths/KarplusSynth.js&#45;&gt;synthesis/ct&#45;synths/BaseSynth.js -->
<g id="edge13" class="edge">
<title>synthesis/ct&#45;synths/KarplusSynth.js&#45;&gt;synthesis/ct&#45;synths/BaseSynth.js</title>
<path fill="none" stroke="#757575" d="M919.56,-208.34C936.04,-207.19 953.01,-206.01 969.55,-204.86"/>
<polygon fill="#757575" stroke="#757575" points="970.05,-208.34 979.78,-204.15 969.57,-201.36 970.05,-208.34"/>
</g>
<!-- synthesis/ct&#45;synths/MetalSynth.js -->
<g id="node10" class="node">
<title>synthesis/ct&#45;synths/MetalSynth.js</title>
<path fill="none" stroke="#c6c5fe" d="M904.83,-146C904.83,-146 697.17,-146 697.17,-146 693.33,-146 689.5,-142.17 689.5,-138.33 689.5,-138.33 689.5,-130.67 689.5,-130.67 689.5,-126.83 693.33,-123 697.17,-123 697.17,-123 904.83,-123 904.83,-123 908.67,-123 912.5,-126.83 912.5,-130.67 912.5,-130.67 912.5,-138.33 912.5,-138.33 912.5,-142.17 908.67,-146 904.83,-146"/>
<text text-anchor="middle" x="801" y="-130.8" font-family="Arial" font-size="14.00" fill="#c6c5fe">synthesis/ct&#45;synths/MetalSynth.js</text>
</g>
<!-- synthesis/ct&#45;synths/MetalSynth.js&#45;&gt;synthesis/ct&#45;synths/BaseSynth.js -->
<g id="edge14" class="edge">
<title>synthesis/ct&#45;synths/MetalSynth.js&#45;&gt;synthesis/ct&#45;synths/BaseSynth.js</title>
<path fill="none" stroke="#757575" d="M907.76,-146.06C920.09,-148.39 932.39,-151.17 944,-154.5 960.83,-159.32 963.41,-164.91 980,-170.5 993.47,-175.04 1008.12,-179.09 1022.2,-182.57"/>
<polygon fill="#757575" stroke="#757575" points="1021.8,-186.07 1032.34,-185 1023.43,-179.26 1021.8,-186.07"/>
</g>
<!-- synthesis/ct&#45;synths/MetalSynth.js&#45;&gt;synthesis/ct&#45;synths/utils/core.js -->
<g id="edge15" class="edge">
<title>synthesis/ct&#45;synths/MetalSynth.js&#45;&gt;synthesis/ct&#45;synths/utils/core.js</title>
<path fill="none" stroke="#757575" d="M912.65,-136.92C993.85,-140.83 1106.19,-150.74 1202,-175.5 1241.28,-185.65 1283.78,-205.09 1311.63,-219.1"/>
<polygon fill="#757575" stroke="#757575" points="1310.34,-222.37 1320.84,-223.8 1313.53,-216.14 1310.34,-222.37"/>
</g>
<!-- synthesis/ct&#45;synths/MetalSynth.js&#45;&gt;synthesis/ct&#45;synths/utils/tone.js -->
<g id="edge16" class="edge">
<title>synthesis/ct&#45;synths/MetalSynth.js&#45;&gt;synthesis/ct&#45;synths/utils/tone.js</title>
<path fill="none" stroke="#757575" d="M912.68,-131.22C1004.76,-128.5 1135.34,-124.63 1228.37,-121.88"/>
<polygon fill="#757575" stroke="#757575" points="1228.49,-125.38 1238.38,-121.58 1228.28,-118.38 1228.49,-125.38"/>
</g>
<!-- synthesis/ct&#45;synths/MonoSynth.js -->
<g id="node11" class="node">
<title>synthesis/ct&#45;synths/MonoSynth.js</title>
<path fill="none" stroke="#c6c5fe" d="M905.33,-64C905.33,-64 696.67,-64 696.67,-64 692.83,-64 689,-60.17 689,-56.33 689,-56.33 689,-48.67 689,-48.67 689,-44.83 692.83,-41 696.67,-41 696.67,-41 905.33,-41 905.33,-41 909.17,-41 913,-44.83 913,-48.67 913,-48.67 913,-56.33 913,-56.33 913,-60.17 909.17,-64 905.33,-64"/>
<text text-anchor="middle" x="801" y="-48.8" font-family="Arial" font-size="14.00" fill="#c6c5fe">synthesis/ct&#45;synths/MonoSynth.js</text>
</g>
<!-- synthesis/ct&#45;synths/MonoSynth.js&#45;&gt;synthesis/ct&#45;synths/BaseSynth.js -->
<g id="edge17" class="edge">
<title>synthesis/ct&#45;synths/MonoSynth.js&#45;&gt;synthesis/ct&#45;synths/BaseSynth.js</title>
<path fill="none" stroke="#757575" d="M913.04,-61.89C923.74,-64.64 934.23,-68.12 944,-72.5 998.95,-97.17 1049.23,-149 1073.94,-177.21"/>
<polygon fill="#757575" stroke="#757575" points="1071.31,-179.53 1080.49,-184.83 1076.62,-174.96 1071.31,-179.53"/>
</g>
<!-- synthesis/ct&#45;synths/MonoSynth.js&#45;&gt;synthesis/ct&#45;synths/utils/tone.js -->
<g id="edge18" class="edge">
<title>synthesis/ct&#45;synths/MonoSynth.js&#45;&gt;synthesis/ct&#45;synths/utils/tone.js</title>
<path fill="none" stroke="#757575" d="M902.34,-40.99C984.04,-34.41 1101.82,-31.32 1202,-53.5 1243.96,-62.79 1288.33,-85.84 1315.72,-101.83"/>
<polygon fill="#757575" stroke="#757575" points="1313.94,-104.85 1324.33,-106.95 1317.52,-98.83 1313.94,-104.85"/>
</g>
<!-- synthesis/ct&#45;synths/Sampler.js -->
<g id="node12" class="node">
<title>synthesis/ct&#45;synths/Sampler.js</title>
<path fill="none" stroke="#c6c5fe" d="M896.83,-187C896.83,-187 705.17,-187 705.17,-187 701.33,-187 697.5,-183.17 697.5,-179.33 697.5,-179.33 697.5,-171.67 697.5,-171.67 697.5,-167.83 701.33,-164 705.17,-164 705.17,-164 896.83,-164 896.83,-164 900.67,-164 904.5,-167.83 904.5,-171.67 904.5,-171.67 904.5,-179.33 904.5,-179.33 904.5,-183.17 900.67,-187 896.83,-187"/>
<text text-anchor="middle" x="801" y="-171.8" font-family="Arial" font-size="14.00" fill="#c6c5fe">synthesis/ct&#45;synths/Sampler.js</text>
</g>
<!-- synthesis/ct&#45;synths/Sampler.js&#45;&gt;synthesis/ct&#45;synths/BaseSynth.js -->
<g id="edge19" class="edge">
<title>synthesis/ct&#45;synths/Sampler.js&#45;&gt;synthesis/ct&#45;synths/BaseSynth.js</title>
<path fill="none" stroke="#757575" d="M904.75,-182.99C925.81,-184.53 948.16,-186.16 969.76,-187.73"/>
<polygon fill="#757575" stroke="#757575" points="969.74,-191.24 979.97,-188.48 970.25,-184.26 969.74,-191.24"/>
</g>
<!-- synthesis/ct&#45;synths/deprecated/FMSynth.js -->
<g id="node13" class="node">
<title>synthesis/ct&#45;synths/deprecated/FMSynth.js</title>
<path fill="none" stroke="#c6c5fe" d="M936.33,-269C936.33,-269 665.67,-269 665.67,-269 661.83,-269 658,-265.17 658,-261.33 658,-261.33 658,-253.67 658,-253.67 658,-249.83 661.83,-246 665.67,-246 665.67,-246 936.33,-246 936.33,-246 940.17,-246 944,-249.83 944,-253.67 944,-253.67 944,-261.33 944,-261.33 944,-265.17 940.17,-269 936.33,-269"/>
<text text-anchor="middle" x="801" y="-253.8" font-family="Arial" font-size="14.00" fill="#c6c5fe">synthesis/ct&#45;synths/deprecated/FMSynth.js</text>
</g>
<!-- synthesis/ct&#45;synths/deprecated/FMSynth.js&#45;&gt;synthesis/ct&#45;synths/BaseSynth.js -->
<g id="edge20" class="edge">
<title>synthesis/ct&#45;synths/deprecated/FMSynth.js&#45;&gt;synthesis/ct&#45;synths/BaseSynth.js</title>
<path fill="none" stroke="#757575" d="M899.98,-245.95C914.84,-243.35 929.91,-240.23 944,-236.5 960.6,-232.11 963.61,-227.6 980,-222.5 994.24,-218.07 1009.71,-213.98 1024.43,-210.42"/>
<polygon fill="#757575" stroke="#757575" points="1025.56,-213.75 1034.48,-208.04 1023.94,-206.94 1025.56,-213.75"/>
</g>
<!-- synthesis/ct&#45;synths/deprecated/FMSynth.js&#45;&gt;synthesis/ct&#45;synths/utils/core.js -->
<g id="edge21" class="edge">
<title>synthesis/ct&#45;synths/deprecated/FMSynth.js&#45;&gt;synthesis/ct&#45;synths/utils/core.js</title>
<path fill="none" stroke="#757575" d="M944.2,-258.08C1020.67,-257.62 1116.56,-255.8 1202,-250.5 1212.68,-249.84 1223.81,-248.96 1234.91,-247.97"/>
<polygon fill="#757575" stroke="#757575" points="1235.46,-251.44 1245.09,-247.03 1234.81,-244.47 1235.46,-251.44"/>
</g>
<!-- synthesis/ct&#45;synths/deprecated/FMSynth.js&#45;&gt;synthesis/ct&#45;synths/utils/tone.js -->
<g id="edge22" class="edge">
<title>synthesis/ct&#45;synths/deprecated/FMSynth.js&#45;&gt;synthesis/ct&#45;synths/utils/tone.js</title>
<path fill="none" stroke="#757575" d="M944.21,-250.45C1039.62,-244.29 1155.95,-233.6 1202,-216.5 1250.3,-198.56 1297.57,-160.02 1323.09,-136.98"/>
<polygon fill="#757575" stroke="#757575" points="1325.59,-139.43 1330.58,-130.09 1320.85,-134.28 1325.59,-139.43"/>
</g>
<!-- synthesis/ct&#45;synths/index.js -->
<g id="node14" class="node">
<title>synthesis/ct&#45;synths/index.js</title>
<path fill="none" stroke="#c6c5fe" d="M614.33,-166C614.33,-166 441.67,-166 441.67,-166 437.83,-166 434,-162.17 434,-158.33 434,-158.33 434,-150.67 434,-150.67 434,-146.83 437.83,-143 441.67,-143 441.67,-143 614.33,-143 614.33,-143 618.17,-143 622,-146.83 622,-150.67 622,-150.67 622,-158.33 622,-158.33 622,-162.17 618.17,-166 614.33,-166"/>
<text text-anchor="middle" x="528" y="-150.8" font-family="Arial" font-size="14.00" fill="#c6c5fe">synthesis/ct&#45;synths/index.js</text>
</g>
<!-- synthesis/ct&#45;synths/index.js&#45;&gt;synthesis/ct&#45;synths/DrumSynth.js -->
<g id="edge23" class="edge">
<title>synthesis/ct&#45;synths/index.js&#45;&gt;synthesis/ct&#45;synths/DrumSynth.js</title>
<path fill="none" stroke="#757575" d="M534.2,-166.18C548.7,-197.21 592.82,-281.87 658,-319.5 664.52,-323.27 671.49,-326.42 678.7,-329.06"/>
<polygon fill="#757575" stroke="#757575" points="678.07,-332.53 688.66,-332.34 680.26,-325.89 678.07,-332.53"/>
</g>
<!-- synthesis/ct&#45;synths/index.js&#45;&gt;synthesis/ct&#45;synths/DuoSynth.js -->
<g id="edge24" class="edge">
<title>synthesis/ct&#45;synths/index.js&#45;&gt;synthesis/ct&#45;synths/DuoSynth.js</title>
<path fill="none" stroke="#757575" d="M560.14,-142.98C586.02,-133.8 623.97,-121.25 658,-113.5 669.19,-110.95 680.95,-108.67 692.72,-106.65"/>
<polygon fill="#757575" stroke="#757575" points="693.3,-110.1 702.59,-105.01 692.16,-103.2 693.3,-110.1"/>
</g>
<!-- synthesis/ct&#45;synths/index.js&#45;&gt;synthesis/ct&#45;synths/FMSynth.js -->
<g id="edge25" class="edge">
<title>synthesis/ct&#45;synths/index.js&#45;&gt;synthesis/ct&#45;synths/FMSynth.js</title>
<path fill="none" stroke="#757575" d="M537.07,-166.18C555.3,-191.53 602.41,-251.46 658,-278.5 666.98,-282.87 676.64,-286.36 686.54,-289.14"/>
<polygon fill="#757575" stroke="#757575" points="685.94,-292.6 696.5,-291.69 687.68,-285.82 685.94,-292.6"/>
</g>
<!-- synthesis/ct&#45;synths/index.js&#45;&gt;synthesis/ct&#45;synths/Granular.js -->
<g id="edge26" class="edge">
<title>synthesis/ct&#45;synths/index.js&#45;&gt;synthesis/ct&#45;synths/Granular.js</title>
<path fill="none" stroke="#757575" d="M537.09,-142.91C555.37,-117.77 602.57,-58.33 658,-31.5 667.26,-27.02 677.22,-23.47 687.42,-20.65"/>
<polygon fill="#757575" stroke="#757575" points="688.42,-24.01 697.27,-18.18 686.72,-17.22 688.42,-24.01"/>
</g>
<!-- synthesis/ct&#45;synths/index.js&#45;&gt;synthesis/ct&#45;synths/KarplusSynth.js -->
<g id="edge27" class="edge">
<title>synthesis/ct&#45;synths/index.js&#45;&gt;synthesis/ct&#45;synths/KarplusSynth.js</title>
<path fill="none" stroke="#757575" d="M560.41,-166.05C586.29,-175.18 624.11,-187.66 658,-195.5 670.58,-198.41 683.88,-201 697.09,-203.28"/>
<polygon fill="#757575" stroke="#757575" points="696.73,-206.77 707.17,-204.97 697.88,-199.87 696.73,-206.77"/>
</g>
<!-- synthesis/ct&#45;synths/index.js&#45;&gt;synthesis/ct&#45;synths/MetalSynth.js -->
<g id="edge28" class="edge">
<title>synthesis/ct&#45;synths/index.js&#45;&gt;synthesis/ct&#45;synths/MetalSynth.js</title>
<path fill="none" stroke="#757575" d="M622.26,-147.62C640.56,-146.27 660,-144.83 679.06,-143.43"/>
<polygon fill="#757575" stroke="#757575" points="679.57,-146.9 689.28,-142.67 679.05,-139.92 679.57,-146.9"/>
</g>
<!-- synthesis/ct&#45;synths/index.js&#45;&gt;synthesis/ct&#45;synths/MonoSynth.js -->
<g id="edge29" class="edge">
<title>synthesis/ct&#45;synths/index.js&#45;&gt;synthesis/ct&#45;synths/MonoSynth.js</title>
<path fill="none" stroke="#757575" d="M542.63,-142.99C565.08,-124.74 611.93,-89.48 658,-72.5 664.75,-70.01 671.78,-67.83 678.94,-65.92"/>
<polygon fill="#757575" stroke="#757575" points="679.92,-69.29 688.78,-63.48 678.23,-62.49 679.92,-69.29"/>
</g>
<!-- synthesis/ct&#45;synths/index.js&#45;&gt;synthesis/ct&#45;synths/Sampler.js -->
<g id="edge30" class="edge">
<title>synthesis/ct&#45;synths/index.js&#45;&gt;synthesis/ct&#45;synths/Sampler.js</title>
<path fill="none" stroke="#757575" d="M622.26,-161.73C643.15,-163.35 665.52,-165.08 687.1,-166.75"/>
<polygon fill="#757575" stroke="#757575" points="687.05,-170.26 697.29,-167.54 687.59,-163.28 687.05,-170.26"/>
</g>
<!-- synthesis/global.js -->
<g id="node15" class="node">
<title>synthesis/global.js</title>
<path fill="none" stroke="#cfffac" d="M390.33,-125C390.33,-125 273.67,-125 273.67,-125 269.83,-125 266,-121.17 266,-117.33 266,-117.33 266,-109.67 266,-109.67 266,-105.83 269.83,-102 273.67,-102 273.67,-102 390.33,-102 390.33,-102 394.17,-102 398,-105.83 398,-109.67 398,-109.67 398,-117.33 398,-117.33 398,-121.17 394.17,-125 390.33,-125"/>
<text text-anchor="middle" x="332" y="-109.8" font-family="Arial" font-size="14.00" fill="#cfffac">synthesis/global.js</text>
</g>
<!-- synthesis/sound.js -->
<g id="node16" class="node">
<title>synthesis/sound.js</title>
<path fill="none" stroke="#c6c5fe" d="M173.83,-166C173.83,-166 56.17,-166 56.17,-166 52.33,-166 48.5,-162.17 48.5,-158.33 48.5,-158.33 48.5,-150.67 48.5,-150.67 48.5,-146.83 52.33,-143 56.17,-143 56.17,-143 173.83,-143 173.83,-143 177.67,-143 181.5,-146.83 181.5,-150.67 181.5,-150.67 181.5,-158.33 181.5,-158.33 181.5,-162.17 177.67,-166 173.83,-166"/>
<text text-anchor="middle" x="115" y="-150.8" font-family="Arial" font-size="14.00" fill="#c6c5fe">synthesis/sound.js</text>
</g>
<!-- synthesis/sound.js&#45;&gt;synthesis/global.js -->
<g id="edge31" class="edge">
<title>synthesis/sound.js&#45;&gt;synthesis/global.js</title>
<path fill="none" stroke="#757575" d="M179.34,-142.99C195.84,-139.95 213.59,-136.64 230,-133.5 240.82,-131.43 252.29,-129.2 263.46,-127"/>
<polygon fill="#757575" stroke="#757575" points="264.47,-130.37 273.61,-125 263.12,-123.5 264.47,-130.37"/>
</g>
<!-- synthesis/utils.js -->
<g id="node17" class="node">
<title>synthesis/utils.js</title>
<path fill="none" stroke="#c6c5fe" d="M383.83,-166C383.83,-166 280.17,-166 280.17,-166 276.33,-166 272.5,-162.17 272.5,-158.33 272.5,-158.33 272.5,-150.67 272.5,-150.67 272.5,-146.83 276.33,-143 280.17,-143 280.17,-143 383.83,-143 383.83,-143 387.67,-143 391.5,-146.83 391.5,-150.67 391.5,-150.67 391.5,-158.33 391.5,-158.33 391.5,-162.17 387.67,-166 383.83,-166"/>
<text text-anchor="middle" x="332" y="-150.8" font-family="Arial" font-size="14.00" fill="#c6c5fe">synthesis/utils.js</text>
</g>
<!-- synthesis/sound.js&#45;&gt;synthesis/utils.js -->
<g id="edge32" class="edge">
<title>synthesis/sound.js&#45;&gt;synthesis/utils.js</title>
<path fill="none" stroke="#757575" d="M181.68,-154.5C207.19,-154.5 236.42,-154.5 262.22,-154.5"/>
<polygon fill="#757575" stroke="#757575" points="262.29,-158 272.29,-154.5 262.29,-151 262.29,-158"/>
</g>
<!-- synthesis/utils.js&#45;&gt;synthesis/ct&#45;synths/index.js -->
<g id="edge35" class="edge">
<title>synthesis/utils.js&#45;&gt;synthesis/ct&#45;synths/index.js</title>
<path fill="none" stroke="#757575" d="M391.73,-154.5C401.89,-154.5 412.72,-154.5 423.66,-154.5"/>
<polygon fill="#757575" stroke="#757575" points="423.71,-158 433.71,-154.5 423.71,-151 423.71,-158"/>
</g>
<!-- synthesis/synthesis&#45;deprecated.js -->
<g id="node18" class="node">
<title>synthesis/synthesis&#45;deprecated.js</title>
<path fill="none" stroke="#c6c5fe" d="M222.33,-125C222.33,-125 7.67,-125 7.67,-125 3.83,-125 0,-121.17 0,-117.33 0,-117.33 0,-109.67 0,-109.67 0,-105.83 3.83,-102 7.67,-102 7.67,-102 222.33,-102 222.33,-102 226.17,-102 230,-105.83 230,-109.67 230,-109.67 230,-117.33 230,-117.33 230,-121.17 226.17,-125 222.33,-125"/>
<text text-anchor="middle" x="115" y="-109.8" font-family="Arial" font-size="14.00" fill="#c6c5fe">synthesis/synthesis&#45;deprecated.js</text>
</g>
<!-- synthesis/synthesis&#45;deprecated.js&#45;&gt;synthesis/global.js -->
<g id="edge33" class="edge">
<title>synthesis/synthesis&#45;deprecated.js&#45;&gt;synthesis/global.js</title>
<path fill="none" stroke="#757575" d="M230.11,-113.5C238.83,-113.5 247.49,-113.5 255.86,-113.5"/>
<polygon fill="#757575" stroke="#757575" points="255.91,-117 265.91,-113.5 255.91,-110 255.91,-117"/>
</g>
<!-- synthesis/synthesis&#45;deprecated.js&#45;&gt;synthesis/utils.js -->
<g id="edge34" class="edge">
<title>synthesis/synthesis&#45;deprecated.js&#45;&gt;synthesis/utils.js</title>
<path fill="none" stroke="#757575" d="M183.88,-125.05C199.07,-127.73 215.1,-130.64 230,-133.5 241.96,-135.79 254.68,-138.35 266.93,-140.86"/>
<polygon fill="#757575" stroke="#757575" points="266.57,-144.36 277.07,-142.96 267.99,-137.51 266.57,-144.36"/>
</g>
</g>
</svg>
